<svg preserveAspectRatio="none" width="100%" height="100%" overflow="visible" style="display: block;" viewBox="0 0 45.3749 35.7566" fill="none" xmlns="http://www.w3.org/2000/svg">
<g id="logo">
<path id="Vector" d="M23.0785 21.5842C24.4433 15.3167 26.8859 13.05 28.2917 9.92803L28.3062 9.89455C28.6576 9.15059 28.8246 8.35827 28.8246 7.47971C28.8246 4.30502 26.2475 1.73936 23.0609 1.73936C19.8744 1.73936 17.3206 4.30502 17.3206 7.47971C17.3206 8.35827 17.5079 9.17832 17.8596 9.92228C19.2535 13.0503 21.6903 15.3113 23.0609 21.5785L23.0785 21.5842ZM21.4617 5.84536C21.4617 4.95565 22.183 4.23468 23.0724 4.23468C23.9621 4.23468 24.6831 4.95599 24.6831 5.84536C24.6831 6.73507 23.9618 7.45604 23.0724 7.45604C22.183 7.45604 21.4617 6.73473 21.4617 5.84536Z" fill="var(--fill-0, #282B2B)"/>
<path id="Vector_2" d="M5.43836 20.5808L0.877188 24.2895C-0.337164 25.2769 -0.28813 26.4987 1.0084 27.0107L15.5542 32.7565L22.3767 26.7151L5.43836 20.5808ZM15.3858 31.4965L1.93801 26.2464C1.18154 25.9512 1.14637 25.2407 1.85212 24.6638L5.52392 21.6636L20.3738 27.1044L15.3858 31.4965Z" fill="var(--fill-0, #282B2B)"/>
<path id="Vector_3" d="M16.6682 33.1969L22.4447 35.4785C23.9952 36.0909 26.2761 35.6577 27.5023 34.5161L32.098 30.2363L23.492 27.1194L16.6682 33.1969Z" fill="var(--fill-0, #282B2B)"/>
<path id="Vector_4" d="M23.7983 22.2404C23.7279 22.5803 23.4233 22.8261 23.078 22.8261V22.8204C22.7266 22.8204 22.4338 22.586 22.3516 22.2347C21.9634 20.462 21.4886 18.9829 20.9753 17.6924L14.8305 22.9056L32.9889 29.4061L39.7769 23.0845L24.9562 18.2362C24.5253 19.3968 24.1287 20.7082 23.7983 22.2404Z" fill="var(--fill-0, #282B2B)"/>
<path id="Vector_5" d="M43.8926 15.7971L29.4336 11.5017C29.578 11.2149 29.7184 10.9261 29.8489 10.6309L29.9074 10.5139C30.3348 9.54743 30.5516 8.53394 30.5516 7.47988C30.5516 3.35629 27.1953 5.17399e-06 23.0656 5.17399e-06C18.9421 5.17399e-06 15.5915 3.35629 15.5858 7.47988C15.5858 8.58095 15.8201 9.65293 16.2888 10.6312C16.4136 10.9068 16.5455 11.1747 16.6801 11.4401L6.32444 19.8604L13.7932 22.534L20.5991 16.7902C19.9616 15.3405 19.2843 14.1343 18.6495 13.0035C18.2654 12.3204 17.8954 11.6545 17.5552 10.9816C17.4281 10.7313 17.3013 10.4811 17.1853 10.2271C16.7927 9.37192 16.5878 8.43486 16.5878 7.47413C16.5878 3.90108 19.4872 0.995902 23.066 0.995902C26.6509 0.995902 29.5679 3.90108 29.5679 7.48022C29.5679 8.40578 29.3393 9.37225 28.9528 10.2275C28.7769 10.6292 28.5801 11.0235 28.3725 11.4171C28.0962 11.9416 27.7993 12.4651 27.4882 13.0038C27.3661 13.2216 27.242 13.4431 27.1172 13.6676C27.1081 13.6842 27.0989 13.7001 27.0898 13.7167L27.0901 13.7163C26.6221 14.5597 26.1419 15.4616 25.6793 16.4822L25.678 16.4818C25.6682 16.5035 25.6587 16.5268 25.6492 16.5485C25.6266 16.5992 25.6032 16.6479 25.5806 16.6993L25.5833 16.7003C25.4889 16.913 25.3943 17.1257 25.3016 17.3499L40.6171 22.3027L44.7803 18.4256C45.8455 17.4331 45.4366 16.2556 43.8926 15.7971ZM43.597 18.0634L40.2671 21.1455L26.6384 16.7882C27.2051 15.5526 27.7962 14.487 28.3552 13.4894C28.5818 13.0877 28.8009 12.6954 29.0136 12.3031L43.0904 16.5326C43.9876 16.8024 44.2182 17.4886 43.597 18.0634Z" fill="var(--fill-0, #282B2B)"/>
</g>
</svg>
